<svg xmlns="http://www.w3.org/2000/svg" enable-background="new 0 0 512 512" viewBox="0 0 512 512" id="delivery-man"><path d="M505.6 135H348.8c-.8 0-1.4.6-1.4 1.4v133.9c0 .8-.6 1.4-1.4 1.4h-19.6c-.1-.4-.2-.8-.1-1 9.6-17.1 9.6-35.3 3.8-53.2-11.5-36.1-29-69.1-55-97-8.1-8.7-13.6-14.4-25.2-18.6-3.1-1.1-5.2-.7-7.7 1.5-21.8 12.5-130.6 61-159.4 73.7-1.3.2-6.9 13.2-5 20.2 1.3 4.8 2.9 8.7 5 12 0 0 0-.1.1-.1 0 .1-.1.1-.1.2.1.1.1.2.2.4-3.1 5.6-6.3 12-9 18.4H32.3v59.4h25.6c-2.6 18.8-2.8 37.3.2 53 .1.8-.3 1.5-1.1 1.7-9.8 2.6-19 6.3-27 12.7-8.1 6.5-13.3 15-17.5 24.8-.3.7 0 1.5.7 1.9 1 .5 2 1 3.1 1.4 40.8 16.4 80.1 35.8 118 58 2.8 1.6 5.9 2.5 9.2 2.5 54.9.1 109.8.1 164.7.1 1.5 0 3 0 4.6 0 .7 0 1.2.4 1.4 1.1.6 2.4 1.2 4.6 1.9 6.9 8.6 29.5 36.6 50.1 67.2 49.3 31.4-.8 58.5-22.6 65.3-52.9.8-3.7 2.3-4.6 5.7-4.5 5.8.2 11.5.1 17.5.1.8 0 1.4-.6 1.5-1.4.8-15-1-29.3-4.5-43.4-5.8-22.9-15.9-43.4-34.2-59.1-13.8-11.9-30-18.4-47.9-20.7-1.4-.2-2.8-.4-4.2-.6-.6-.1-1.1-.6-1.2-1.2-1.3-11.8 5.1-20 17.1-21.6 2.9-.4 5.8-.4 8.7-.4 31.6 0 63.1 0 94.7 0 1.4 0 2.8 0 4.4 0 .8 0 1.5-.6 1.5-1.4V136.5C507 135.7 506.4 135 505.6 135zM44.2 275.7V240h24.3l-1.4 6.9c-3 9.3-5.4 19-7.3 28.8H44.2zM204 420.6c-18.3 0-36.6 0-54.9 0-2.6 0-5.5-.7-7.7-2-28.9-16.7-58.6-31.7-89.1-45.3-.9-.4-1.7-.8-2.6-1.2-1-.4-1.1-1.7-.3-2.4 13.9-11.5 39.6-6.6 59.9 11.8.5.5 1.3.5 1.9 0 4.9-4.1 9.9-8.3 15.6-13 .7-.6.7-1.6 0-2.2-4.9-4.2-9.5-8.4-14.5-12.1-8-6-17-10.2-26.9-12-3-.6-4-1.9-4.5-4.6-6.9-32.7 4.8-83.7 21.2-114.6 2.1.6 4.3 1.1 6.6 1.6 0 0 0 0 0 0 0 0 0 0 0 0-1.8 13.6-3.6 43.7-2.3 55.1 3.7 33.5 17.6 61.8 43.4 83.9 12.3 10.6 26.3 18 42.3 21.7 1.5.3 3.2 2.1 3.7 3.6.9 2.3 5.4 20.4 8.2 31.4 0 0-.1 0-.1 0C203.9 420.4 203.9 420.5 204 420.6zM170.4 295.4c5.5 20.6 11.2 41.1 16.8 61.7.3 1.1-.7 2-1.8 1.8-14.5-3.6-36.4-25-46.3-45.6-10-20.9-10.5-63.6-7.7-87.1 0 0 .1 0 .1 0 0-.1 0-.2.1-.2.5 0 1 0 1.5 0 18 .1 75.1-11.6 82.7-16.7.7-.5 1.7-.2 2.1.6 3.5 7 7 14 10.5 21.1.4.7.1 1.6-.6 2-12.8 6.4-25.3 12.7-37.8 18.9C171.9 260.9 165.2 275.8 170.4 295.4zM249.2 420.5c-7.2 0-21.7-.2-21.7-.2-2.5-9.8-10.1-39.9-11.6-45.3-7.7-28.2-15.4-56.4-23.1-84.6-2.8-10.1-1.1-13.7 8.2-18.3 18.1-9.1 36.2-18.1 54.3-27.2 1-.5 2-1 3.2-1.7.7-.4 1-1.2.6-1.9-10.8-21.5-21.4-42.9-32.3-64.7-.4-.8-1.4-1-2.1-.6-6.7 4.4-13.1 8.7-19.6 13-7.1 4.7-38.4 14.2-46.9 14.3-11.1.1-22.3.5-33.4.1-5.7-.2-11.5-1.4-17-2.9-4.1-1.2-7.3-3.9-9.4-8.3-.4-.9-.6-2.9.4-3 5-.7 145.3-62.1 146.4-62.9.5-.4 1.3-.4 1.8 0 2.3 1.8 4.8 3.5 6.8 5.6 27.8 27.8 45.6 61.4 56 99 1 3.8 1.2 7.9 1.1 11.8-.6 16.5-9.2 26.6-25.4 29.9-20.4 4.2-40.9 8.2-61.4 12.3-1 .2-2 .4-3.3.7-.8.2-1.3 1-1.1 1.7 7.3 33 21 94.2 29.7 133.2C249.3 420.5 249.3 420.5 249.2 420.5L249.2 420.5zM425 445.2c-2.9 17.4-24.4 33.3-44.7 32.5-19.9-.7-40.5-16.9-42.1-32.6-.1-.9.6-1.6 1.4-1.6h83.9C424.4 443.5 425.1 444.3 425 445.2zM381.9 341.2c32.9 4 51.7 24.1 61.7 54.1 2.5 7.4 3.9 15.1 5.9 23.3.2.9-.4 1.7-1.3 1.8-1.5.1-2.7.2-3.8.2-43.6 0-129.7-.1-171.6-.1-7.1-31.9-19.7-88.4-25.7-115.4-.2-.8.3-1.6 1.1-1.7 7.6-1.5 15.1-3.1 22.5-4.6 4.8-1 9.6-1.9 14.4-2.8 3.9-.7 7.9-1.1 11.9-1.2 19.8-.1 39.6-.1 59.4-.1.9 0 1.9 0 2.7 0 .9 0 1.6.8 1.4 1.7-1 6.9-2 13.6-3.1 20.2-.1.8-1.4 1.9-2.3 2.1-35.6 6.3-56.4 29.7-70.3 61-1.8 4-3.2 8.2-4.7 12.4-.1.2-.2.5-.2.8-.2.7.3 1.4 1 1.7 6.2 2.1 12.3 4.1 18.7 6.3.7.2 1.5-.1 1.8-.9.5-1.3 1-2.6 1.5-3.7 4.3-8.7 7.9-17.9 13.2-26C331.6 346.5 354.2 337.8 381.9 341.2zM482.8 271.7H372c-.8 0-1.4-.6-1.4-1.4V159.4c0-.8.6-1.4 1.4-1.4h42.6c.8 0 1.4.6 1.4 1.4v42.3c0 .8.6 1.4 1.4 1.4h20c.8 0 1.4-.6 1.4-1.4v-42.2c0-.8.6-1.4 1.4-1.4h42.3c.8 0 1.4.6 1.4 1.4v110.8h.3C484.2 271.1 483.6 271.7 482.8 271.7zM192.9 114.1c28.5 0 51.5-22.9 51.5-51.3 0-28.7-23-51.6-51.8-51.5-28.2.1-51 23-51.1 51.3C141.3 90.9 164.4 114.1 192.9 114.1zM192.9 34.2c16 0 28.7 12.8 28.6 28.8-.1 15.7-12.9 28.2-28.8 28.2-15.7 0-28.5-12.9-28.4-28.6C164.4 46.8 177.1 34.2 192.9 34.2zM83 476.5c-10.6 2.5-20.9 1.2-30.6-3.7-22.5-11.2-29.4-32.7-20.2-62.9-6.3-3.4-12.7-6.9-19.7-10.7-10.4 21-11.6 42-1.2 62.8 13 25.7 34.7 39 63.4 38.4 28.1-.7 48.1-15.2 61-40.5-7.3-3.3-14-6.2-20.9-9.3C108 464 97.7 473.1 83 476.5z"></path><rect width="85.1" height="17.4" x="385.8" y="214.9"></rect><rect width="85.1" height="17.4" x="385.8" y="239.5"></rect><path d="M157.8 390.3c-2.2 0-4 1.8-4 4v17.9c0 2.2 1.8 4 4 4 2.2 0 4-1.8 4-4v-17.9C161.8 392.1 160 390.3 157.8 390.3zM147.5 390.3c-2.2 0-4 1.8-4 4v17.9c0 2.2 1.8 4 4 4s4-1.8 4-4v-17.9C151.5 392.1 149.7 390.3 147.5 390.3zM178.8 390.3c-2.2 0-4 1.8-4 4v17.9c0 2.2 1.8 4 4 4 2.2 0 4-1.8 4-4v-17.9C182.8 392.1 181 390.3 178.8 390.3zM188.9 390.3c-2.2 0-4 1.8-4 4v17.9c0 2.2 1.8 4 4 4 2.2 0 4-1.8 4-4v-17.9C192.9 392.1 191.1 390.3 188.9 390.3zM168.5 390.3c-2.2 0-4 1.8-4 4v17.9c0 2.2 1.8 4 4 4s4-1.8 4-4v-17.9C172.5 392.1 170.7 390.3 168.5 390.3z"></path></svg>