<svg xmlns="http://www.w3.org/2000/svg" data-name="Delivery bike" viewBox="0 0 64 64" id="scooter-delivery"><path d="M63.78,42.38l-1-1.25c-1.29-1.61-2.97-2.79-4.85-3.47-.04-.1-.09-.2-.16-.28l-2.03-2.54c-1.16-1.44-1.86-3.19-2-5.05l-.55-6.78h2.81c.55,0,1-.45,1-1v-6c0-.55-.45-1-1-1h-8c-1.01,0-1.91,.39-2.62,1h-2.38c-1.65,0-3,1.35-3,3s1.35,3,3,3h2.38c.46,.4,1.01,.7,1.62,.86v9.83c0,1.87-.73,3.62-2.05,4.94l-5.37,5.37h-11.59v-4.76c0-2.47,.96-4.79,2.71-6.54,.19-.19,.26-.45,.29-.71v-3c0-1.65-1.35-3-3-3h-6V11c0-.55-.45-1-1-1H1c-.55,0-1,.45-1,1v15c0,.55,.45,1,1,1H3v3c0,.27,.11,.52,.29,.71l2.13,2.13c-2.46,1.8-4.26,4.4-5.02,7.46-.26,1.05-.4,2.13-.4,3.22v4.49c0,.55,.45,1,1,1H5.61c1.21,3.01,4.08,5,7.39,5s6.18-1.99,7.39-5h20.33c1.1,0,2.12-.44,2.89-1.23l2.43-2.54c-.02,.25-.04,.51-.04,.76,0,4.41,3.59,8,8,8s8-3.59,8-8c0-.69-.09-1.35-.26-2h1.26c.38,0,.73-.22,.9-.57,.17-.35,.12-.76-.12-1.06Zm-2.88-.38h-11.76l2.58-2.69c.19-.2,.45-.31,.72-.31h1.74c2.58,0,5,1.09,6.71,3Zm-4.9,4c0,1.1-.9,2-2,2s-2-.9-2-2,.9-2,2-2,2,.9,2,2Zm-1-25h-2v-4h2v4Zm-4-4v4h-3c-.37,0-.7-.11-1-.28v-3.44c.3-.17,.63-.28,1-.28h3Zm-9,2c0-.55,.45-1,1-1h1.14c-.08,.32-.14,.65-.14,1s.06,.68,.14,1h-1.14c-.55,0-1-.45-1-1Zm-13,9v2H13v-2c0-.55,.45-1,1-1h14c.55,0,1,.45,1,1ZM13,12v3h-4v-3h4Zm-11,0H7v4c0,.55,.45,1,1,1h6c.55,0,1-.45,1-1v-4h5v13H2V12Zm3,17.59v-2.59h6.18c-.11,.31-.18,.65-.18,1v2.28l-1.93,.64c-.67,.22-1.3,.51-1.91,.83l-2.16-2.16Zm15,17.41H6v-1c0-3.86,3.14-7,7-7s7,3.14,7,7v1Zm-7,5c-2.2,0-4.13-1.17-5.18-3h10.36c-1.05,1.83-2.98,3-5.18,3Zm29.17-5.62c-.38,.4-.9,.62-1.45,.62H22v-1c0-4.96-4.04-9-9-9s-9,4.04-9,9v1H2v-3.49c0-.92,.11-1.84,.34-2.73,.94-3.76,3.69-6.73,7.37-7.96l2.46-.82h15.73c-1.23,1.83-1.89,3.99-1.89,6.24v5.76c0,.55,.45,1,1,1h13c.27,0,.52-.11,.71-.29l5.66-5.66c1.7-1.7,2.63-3.96,2.63-6.36v-9.69h2.19l.56,6.94c.18,2.26,1.02,4.39,2.44,6.15l.77,.96c-.25-.02-.5-.04-.76-.04h-1.74c-.81,0-1.6,.34-2.16,.92l-4.21,4.38h0s-3.91,4.08-3.91,4.08Zm17.83-.38c0,3.31-2.69,6-6,6s-6-2.69-6-6c0-.7,.12-1.37,.35-2h2.21c-.34,.59-.56,1.27-.56,2,0,2.21,1.79,4,4,4s4-1.79,4-4c0-.73-.21-1.41-.56-2h2.21c.23,.63,.35,1.3,.35,2Z"></path></svg>